<mxfile host="Electron" agent="Mozilla/5.0 (Windows NT 10.0; Win64; x64) AppleWebKit/537.36 (KHTML, like Gecko) draw.io/28.0.6 Chrome/138.0.7204.100 Electron/37.2.3 Safari/537.36" version="28.0.6">
  <diagram name="Page-1" id="i7xCR19rJGot1kyKypp8">
    <mxGraphModel dx="1426" dy="849" grid="1" gridSize="11" guides="1" tooltips="1" connect="1" arrows="1" fold="1" page="1" pageScale="1" pageWidth="1100" pageHeight="850" math="0" shadow="0">
      <root>
        <mxCell id="0" />
        <mxCell id="1" parent="0" />
        <mxCell id="qoCMG7nuV2ip8myK71Ky-5" value="gold.dim_cutomers" style="shape=table;startSize=30;container=1;collapsible=1;childLayout=tableLayout;fixedRows=1;rowLines=0;fontStyle=1;align=center;resizeLast=1;html=1;fontSize=16;fillColor=#fff2cc;strokeColor=#d6b656;" vertex="1" parent="1">
          <mxGeometry x="154" y="209" width="180" height="417" as="geometry" />
        </mxCell>
        <mxCell id="qoCMG7nuV2ip8myK71Ky-6" value="" style="shape=tableRow;horizontal=0;startSize=0;swimlaneHead=0;swimlaneBody=0;fillColor=none;collapsible=0;dropTarget=0;points=[[0,0.5],[1,0.5]];portConstraint=eastwest;top=0;left=0;right=0;bottom=1;fontSize=14;" vertex="1" parent="qoCMG7nuV2ip8myK71Ky-5">
          <mxGeometry y="30" width="180" height="36" as="geometry" />
        </mxCell>
        <mxCell id="qoCMG7nuV2ip8myK71Ky-7" value="PK" style="shape=partialRectangle;connectable=0;fillColor=none;top=0;left=0;bottom=0;right=0;fontStyle=1;overflow=hidden;whiteSpace=wrap;html=1;fontSize=14;" vertex="1" parent="qoCMG7nuV2ip8myK71Ky-6">
          <mxGeometry width="30" height="36" as="geometry">
            <mxRectangle width="30" height="36" as="alternateBounds" />
          </mxGeometry>
        </mxCell>
        <mxCell id="qoCMG7nuV2ip8myK71Ky-8" value="customer_key" style="shape=partialRectangle;connectable=0;fillColor=none;top=0;left=0;bottom=0;right=0;align=left;spacingLeft=6;fontStyle=5;overflow=hidden;whiteSpace=wrap;html=1;fontSize=14;" vertex="1" parent="qoCMG7nuV2ip8myK71Ky-6">
          <mxGeometry x="30" width="150" height="36" as="geometry">
            <mxRectangle width="150" height="36" as="alternateBounds" />
          </mxGeometry>
        </mxCell>
        <mxCell id="qoCMG7nuV2ip8myK71Ky-9" value="" style="shape=tableRow;horizontal=0;startSize=0;swimlaneHead=0;swimlaneBody=0;fillColor=none;collapsible=0;dropTarget=0;points=[[0,0.5],[1,0.5]];portConstraint=eastwest;top=0;left=0;right=0;bottom=0;fontSize=16;fontStyle=1" vertex="1" parent="qoCMG7nuV2ip8myK71Ky-5">
          <mxGeometry y="66" width="180" height="39" as="geometry" />
        </mxCell>
        <mxCell id="qoCMG7nuV2ip8myK71Ky-10" value="" style="shape=partialRectangle;connectable=0;fillColor=none;top=0;left=0;bottom=0;right=0;editable=1;overflow=hidden;whiteSpace=wrap;html=1;fontSize=16;fontStyle=1" vertex="1" parent="qoCMG7nuV2ip8myK71Ky-9">
          <mxGeometry width="30" height="39" as="geometry">
            <mxRectangle width="30" height="39" as="alternateBounds" />
          </mxGeometry>
        </mxCell>
        <mxCell id="qoCMG7nuV2ip8myK71Ky-11" value="CustomerID" style="shape=partialRectangle;connectable=0;fillColor=none;top=0;left=0;bottom=0;right=0;align=left;spacingLeft=6;overflow=hidden;whiteSpace=wrap;html=1;fontSize=16;fontStyle=1" vertex="1" parent="qoCMG7nuV2ip8myK71Ky-9">
          <mxGeometry x="30" width="150" height="39" as="geometry">
            <mxRectangle width="150" height="39" as="alternateBounds" />
          </mxGeometry>
        </mxCell>
        <mxCell id="qoCMG7nuV2ip8myK71Ky-12" value="" style="shape=tableRow;horizontal=0;startSize=0;swimlaneHead=0;swimlaneBody=0;fillColor=none;collapsible=0;dropTarget=0;points=[[0,0.5],[1,0.5]];portConstraint=eastwest;top=0;left=0;right=0;bottom=0;fontSize=16;fontStyle=1" vertex="1" parent="qoCMG7nuV2ip8myK71Ky-5">
          <mxGeometry y="105" width="180" height="39" as="geometry" />
        </mxCell>
        <mxCell id="qoCMG7nuV2ip8myK71Ky-13" value="" style="shape=partialRectangle;connectable=0;fillColor=none;top=0;left=0;bottom=0;right=0;editable=1;overflow=hidden;whiteSpace=wrap;html=1;fontSize=16;fontStyle=1" vertex="1" parent="qoCMG7nuV2ip8myK71Ky-12">
          <mxGeometry width="30" height="39" as="geometry">
            <mxRectangle width="30" height="39" as="alternateBounds" />
          </mxGeometry>
        </mxCell>
        <mxCell id="qoCMG7nuV2ip8myK71Ky-14" value="customer_number" style="shape=partialRectangle;connectable=0;fillColor=none;top=0;left=0;bottom=0;right=0;align=left;spacingLeft=6;overflow=hidden;whiteSpace=wrap;html=1;fontSize=16;fontStyle=1" vertex="1" parent="qoCMG7nuV2ip8myK71Ky-12">
          <mxGeometry x="30" width="150" height="39" as="geometry">
            <mxRectangle width="150" height="39" as="alternateBounds" />
          </mxGeometry>
        </mxCell>
        <mxCell id="qoCMG7nuV2ip8myK71Ky-15" value="" style="shape=tableRow;horizontal=0;startSize=0;swimlaneHead=0;swimlaneBody=0;fillColor=none;collapsible=0;dropTarget=0;points=[[0,0.5],[1,0.5]];portConstraint=eastwest;top=0;left=0;right=0;bottom=0;fontSize=16;fontStyle=1" vertex="1" parent="qoCMG7nuV2ip8myK71Ky-5">
          <mxGeometry y="144" width="180" height="39" as="geometry" />
        </mxCell>
        <mxCell id="qoCMG7nuV2ip8myK71Ky-16" value="" style="shape=partialRectangle;connectable=0;fillColor=none;top=0;left=0;bottom=0;right=0;editable=1;overflow=hidden;whiteSpace=wrap;html=1;fontSize=16;fontStyle=1" vertex="1" parent="qoCMG7nuV2ip8myK71Ky-15">
          <mxGeometry width="30" height="39" as="geometry">
            <mxRectangle width="30" height="39" as="alternateBounds" />
          </mxGeometry>
        </mxCell>
        <mxCell id="qoCMG7nuV2ip8myK71Ky-17" value="first_name" style="shape=partialRectangle;connectable=0;fillColor=none;top=0;left=0;bottom=0;right=0;align=left;spacingLeft=6;overflow=hidden;whiteSpace=wrap;html=1;fontSize=16;fontStyle=1" vertex="1" parent="qoCMG7nuV2ip8myK71Ky-15">
          <mxGeometry x="30" width="150" height="39" as="geometry">
            <mxRectangle width="150" height="39" as="alternateBounds" />
          </mxGeometry>
        </mxCell>
        <mxCell id="qoCMG7nuV2ip8myK71Ky-31" value="" style="shape=tableRow;horizontal=0;startSize=0;swimlaneHead=0;swimlaneBody=0;fillColor=none;collapsible=0;dropTarget=0;points=[[0,0.5],[1,0.5]];portConstraint=eastwest;top=0;left=0;right=0;bottom=0;fontSize=16;fontStyle=1" vertex="1" parent="qoCMG7nuV2ip8myK71Ky-5">
          <mxGeometry y="183" width="180" height="39" as="geometry" />
        </mxCell>
        <mxCell id="qoCMG7nuV2ip8myK71Ky-32" value="" style="shape=partialRectangle;connectable=0;fillColor=none;top=0;left=0;bottom=0;right=0;editable=1;overflow=hidden;whiteSpace=wrap;html=1;fontSize=16;fontStyle=1" vertex="1" parent="qoCMG7nuV2ip8myK71Ky-31">
          <mxGeometry width="30" height="39" as="geometry">
            <mxRectangle width="30" height="39" as="alternateBounds" />
          </mxGeometry>
        </mxCell>
        <mxCell id="qoCMG7nuV2ip8myK71Ky-33" value="last_name" style="shape=partialRectangle;connectable=0;fillColor=none;top=0;left=0;bottom=0;right=0;align=left;spacingLeft=6;overflow=hidden;whiteSpace=wrap;html=1;fontSize=16;fontStyle=1" vertex="1" parent="qoCMG7nuV2ip8myK71Ky-31">
          <mxGeometry x="30" width="150" height="39" as="geometry">
            <mxRectangle width="150" height="39" as="alternateBounds" />
          </mxGeometry>
        </mxCell>
        <mxCell id="qoCMG7nuV2ip8myK71Ky-34" value="" style="shape=tableRow;horizontal=0;startSize=0;swimlaneHead=0;swimlaneBody=0;fillColor=none;collapsible=0;dropTarget=0;points=[[0,0.5],[1,0.5]];portConstraint=eastwest;top=0;left=0;right=0;bottom=0;fontSize=16;fontStyle=1" vertex="1" parent="qoCMG7nuV2ip8myK71Ky-5">
          <mxGeometry y="222" width="180" height="39" as="geometry" />
        </mxCell>
        <mxCell id="qoCMG7nuV2ip8myK71Ky-35" value="" style="shape=partialRectangle;connectable=0;fillColor=none;top=0;left=0;bottom=0;right=0;editable=1;overflow=hidden;whiteSpace=wrap;html=1;fontSize=16;fontStyle=1" vertex="1" parent="qoCMG7nuV2ip8myK71Ky-34">
          <mxGeometry width="30" height="39" as="geometry">
            <mxRectangle width="30" height="39" as="alternateBounds" />
          </mxGeometry>
        </mxCell>
        <mxCell id="qoCMG7nuV2ip8myK71Ky-36" value="country" style="shape=partialRectangle;connectable=0;fillColor=none;top=0;left=0;bottom=0;right=0;align=left;spacingLeft=6;overflow=hidden;whiteSpace=wrap;html=1;fontSize=16;fontStyle=1" vertex="1" parent="qoCMG7nuV2ip8myK71Ky-34">
          <mxGeometry x="30" width="150" height="39" as="geometry">
            <mxRectangle width="150" height="39" as="alternateBounds" />
          </mxGeometry>
        </mxCell>
        <mxCell id="qoCMG7nuV2ip8myK71Ky-37" value="" style="shape=tableRow;horizontal=0;startSize=0;swimlaneHead=0;swimlaneBody=0;fillColor=none;collapsible=0;dropTarget=0;points=[[0,0.5],[1,0.5]];portConstraint=eastwest;top=0;left=0;right=0;bottom=0;fontSize=16;fontStyle=1" vertex="1" parent="qoCMG7nuV2ip8myK71Ky-5">
          <mxGeometry y="261" width="180" height="39" as="geometry" />
        </mxCell>
        <mxCell id="qoCMG7nuV2ip8myK71Ky-38" value="" style="shape=partialRectangle;connectable=0;fillColor=none;top=0;left=0;bottom=0;right=0;editable=1;overflow=hidden;whiteSpace=wrap;html=1;fontSize=16;fontStyle=1" vertex="1" parent="qoCMG7nuV2ip8myK71Ky-37">
          <mxGeometry width="30" height="39" as="geometry">
            <mxRectangle width="30" height="39" as="alternateBounds" />
          </mxGeometry>
        </mxCell>
        <mxCell id="qoCMG7nuV2ip8myK71Ky-39" value="gender" style="shape=partialRectangle;connectable=0;fillColor=none;top=0;left=0;bottom=0;right=0;align=left;spacingLeft=6;overflow=hidden;whiteSpace=wrap;html=1;fontSize=16;fontStyle=1" vertex="1" parent="qoCMG7nuV2ip8myK71Ky-37">
          <mxGeometry x="30" width="150" height="39" as="geometry">
            <mxRectangle width="150" height="39" as="alternateBounds" />
          </mxGeometry>
        </mxCell>
        <mxCell id="qoCMG7nuV2ip8myK71Ky-40" value="" style="shape=tableRow;horizontal=0;startSize=0;swimlaneHead=0;swimlaneBody=0;fillColor=none;collapsible=0;dropTarget=0;points=[[0,0.5],[1,0.5]];portConstraint=eastwest;top=0;left=0;right=0;bottom=0;fontSize=16;fontStyle=1" vertex="1" parent="qoCMG7nuV2ip8myK71Ky-5">
          <mxGeometry y="300" width="180" height="39" as="geometry" />
        </mxCell>
        <mxCell id="qoCMG7nuV2ip8myK71Ky-41" value="" style="shape=partialRectangle;connectable=0;fillColor=none;top=0;left=0;bottom=0;right=0;editable=1;overflow=hidden;whiteSpace=wrap;html=1;fontSize=16;fontStyle=1" vertex="1" parent="qoCMG7nuV2ip8myK71Ky-40">
          <mxGeometry width="30" height="39" as="geometry">
            <mxRectangle width="30" height="39" as="alternateBounds" />
          </mxGeometry>
        </mxCell>
        <mxCell id="qoCMG7nuV2ip8myK71Ky-42" value="marital_status" style="shape=partialRectangle;connectable=0;fillColor=none;top=0;left=0;bottom=0;right=0;align=left;spacingLeft=6;overflow=hidden;whiteSpace=wrap;html=1;fontSize=16;fontStyle=1" vertex="1" parent="qoCMG7nuV2ip8myK71Ky-40">
          <mxGeometry x="30" width="150" height="39" as="geometry">
            <mxRectangle width="150" height="39" as="alternateBounds" />
          </mxGeometry>
        </mxCell>
        <mxCell id="qoCMG7nuV2ip8myK71Ky-43" value="" style="shape=tableRow;horizontal=0;startSize=0;swimlaneHead=0;swimlaneBody=0;fillColor=none;collapsible=0;dropTarget=0;points=[[0,0.5],[1,0.5]];portConstraint=eastwest;top=0;left=0;right=0;bottom=0;fontSize=16;fontStyle=1" vertex="1" parent="qoCMG7nuV2ip8myK71Ky-5">
          <mxGeometry y="339" width="180" height="39" as="geometry" />
        </mxCell>
        <mxCell id="qoCMG7nuV2ip8myK71Ky-44" value="" style="shape=partialRectangle;connectable=0;fillColor=none;top=0;left=0;bottom=0;right=0;editable=1;overflow=hidden;whiteSpace=wrap;html=1;fontSize=16;fontStyle=1" vertex="1" parent="qoCMG7nuV2ip8myK71Ky-43">
          <mxGeometry width="30" height="39" as="geometry">
            <mxRectangle width="30" height="39" as="alternateBounds" />
          </mxGeometry>
        </mxCell>
        <mxCell id="qoCMG7nuV2ip8myK71Ky-45" value="birth_date" style="shape=partialRectangle;connectable=0;fillColor=none;top=0;left=0;bottom=0;right=0;align=left;spacingLeft=6;overflow=hidden;whiteSpace=wrap;html=1;fontSize=16;fontStyle=1" vertex="1" parent="qoCMG7nuV2ip8myK71Ky-43">
          <mxGeometry x="30" width="150" height="39" as="geometry">
            <mxRectangle width="150" height="39" as="alternateBounds" />
          </mxGeometry>
        </mxCell>
        <mxCell id="qoCMG7nuV2ip8myK71Ky-46" value="" style="shape=tableRow;horizontal=0;startSize=0;swimlaneHead=0;swimlaneBody=0;fillColor=none;collapsible=0;dropTarget=0;points=[[0,0.5],[1,0.5]];portConstraint=eastwest;top=0;left=0;right=0;bottom=0;fontSize=16;fontStyle=1" vertex="1" parent="qoCMG7nuV2ip8myK71Ky-5">
          <mxGeometry y="378" width="180" height="39" as="geometry" />
        </mxCell>
        <mxCell id="qoCMG7nuV2ip8myK71Ky-47" value="" style="shape=partialRectangle;connectable=0;fillColor=none;top=0;left=0;bottom=0;right=0;editable=1;overflow=hidden;whiteSpace=wrap;html=1;fontSize=16;fontStyle=1" vertex="1" parent="qoCMG7nuV2ip8myK71Ky-46">
          <mxGeometry width="30" height="39" as="geometry">
            <mxRectangle width="30" height="39" as="alternateBounds" />
          </mxGeometry>
        </mxCell>
        <mxCell id="qoCMG7nuV2ip8myK71Ky-48" value="create_date" style="shape=partialRectangle;connectable=0;fillColor=none;top=0;left=0;bottom=0;right=0;align=left;spacingLeft=6;overflow=hidden;whiteSpace=wrap;html=1;fontSize=16;fontStyle=1" vertex="1" parent="qoCMG7nuV2ip8myK71Ky-46">
          <mxGeometry x="30" width="150" height="39" as="geometry">
            <mxRectangle width="150" height="39" as="alternateBounds" />
          </mxGeometry>
        </mxCell>
        <mxCell id="qoCMG7nuV2ip8myK71Ky-49" value="gold.fact_saled" style="shape=table;startSize=30;container=1;collapsible=1;childLayout=tableLayout;fixedRows=1;rowLines=0;fontStyle=1;align=center;resizeLast=1;html=1;fontSize=16;fillColor=#dae8fc;strokeColor=#6c8ebf;" vertex="1" parent="1">
          <mxGeometry x="460" y="209" width="180" height="381" as="geometry" />
        </mxCell>
        <mxCell id="qoCMG7nuV2ip8myK71Ky-53" value="" style="shape=tableRow;horizontal=0;startSize=0;swimlaneHead=0;swimlaneBody=0;fillColor=none;collapsible=0;dropTarget=0;points=[[0,0.5],[1,0.5]];portConstraint=eastwest;top=0;left=0;right=0;bottom=0;fontSize=16;fontStyle=1" vertex="1" parent="qoCMG7nuV2ip8myK71Ky-49">
          <mxGeometry y="30" width="180" height="39" as="geometry" />
        </mxCell>
        <mxCell id="qoCMG7nuV2ip8myK71Ky-54" value="" style="shape=partialRectangle;connectable=0;fillColor=none;top=0;left=0;bottom=0;right=0;editable=1;overflow=hidden;whiteSpace=wrap;html=1;fontSize=16;fontStyle=1" vertex="1" parent="qoCMG7nuV2ip8myK71Ky-53">
          <mxGeometry width="35" height="39" as="geometry">
            <mxRectangle width="35" height="39" as="alternateBounds" />
          </mxGeometry>
        </mxCell>
        <mxCell id="qoCMG7nuV2ip8myK71Ky-55" value="order_number" style="shape=partialRectangle;connectable=0;fillColor=none;top=0;left=0;bottom=0;right=0;align=left;spacingLeft=6;overflow=hidden;whiteSpace=wrap;html=1;fontSize=16;fontStyle=1" vertex="1" parent="qoCMG7nuV2ip8myK71Ky-53">
          <mxGeometry x="35" width="145" height="39" as="geometry">
            <mxRectangle width="145" height="39" as="alternateBounds" />
          </mxGeometry>
        </mxCell>
        <mxCell id="qoCMG7nuV2ip8myK71Ky-56" value="" style="shape=tableRow;horizontal=0;startSize=0;swimlaneHead=0;swimlaneBody=0;fillColor=none;collapsible=0;dropTarget=0;points=[[0,0.5],[1,0.5]];portConstraint=eastwest;top=0;left=0;right=0;bottom=0;fontSize=16;fontStyle=1" vertex="1" parent="qoCMG7nuV2ip8myK71Ky-49">
          <mxGeometry y="69" width="180" height="39" as="geometry" />
        </mxCell>
        <mxCell id="qoCMG7nuV2ip8myK71Ky-57" value="FK1" style="shape=partialRectangle;connectable=0;fillColor=none;top=0;left=0;bottom=0;right=0;editable=1;overflow=hidden;whiteSpace=wrap;html=1;fontSize=16;fontStyle=1" vertex="1" parent="qoCMG7nuV2ip8myK71Ky-56">
          <mxGeometry width="35" height="39" as="geometry">
            <mxRectangle width="35" height="39" as="alternateBounds" />
          </mxGeometry>
        </mxCell>
        <mxCell id="qoCMG7nuV2ip8myK71Ky-58" value="product_key" style="shape=partialRectangle;connectable=0;fillColor=none;top=0;left=0;bottom=0;right=0;align=left;spacingLeft=6;overflow=hidden;whiteSpace=wrap;html=1;fontSize=16;fontStyle=1" vertex="1" parent="qoCMG7nuV2ip8myK71Ky-56">
          <mxGeometry x="35" width="145" height="39" as="geometry">
            <mxRectangle width="145" height="39" as="alternateBounds" />
          </mxGeometry>
        </mxCell>
        <mxCell id="qoCMG7nuV2ip8myK71Ky-59" value="" style="shape=tableRow;horizontal=0;startSize=0;swimlaneHead=0;swimlaneBody=0;fillColor=none;collapsible=0;dropTarget=0;points=[[0,0.5],[1,0.5]];portConstraint=eastwest;top=0;left=0;right=0;bottom=0;fontSize=16;fontStyle=1" vertex="1" parent="qoCMG7nuV2ip8myK71Ky-49">
          <mxGeometry y="108" width="180" height="39" as="geometry" />
        </mxCell>
        <mxCell id="qoCMG7nuV2ip8myK71Ky-60" value="FK2" style="shape=partialRectangle;connectable=0;fillColor=none;top=0;left=0;bottom=0;right=0;editable=1;overflow=hidden;whiteSpace=wrap;html=1;fontSize=16;fontStyle=1" vertex="1" parent="qoCMG7nuV2ip8myK71Ky-59">
          <mxGeometry width="35" height="39" as="geometry">
            <mxRectangle width="35" height="39" as="alternateBounds" />
          </mxGeometry>
        </mxCell>
        <mxCell id="qoCMG7nuV2ip8myK71Ky-61" value="customer_key" style="shape=partialRectangle;connectable=0;fillColor=none;top=0;left=0;bottom=0;right=0;align=left;spacingLeft=6;overflow=hidden;whiteSpace=wrap;html=1;fontSize=16;fontStyle=1" vertex="1" parent="qoCMG7nuV2ip8myK71Ky-59">
          <mxGeometry x="35" width="145" height="39" as="geometry">
            <mxRectangle width="145" height="39" as="alternateBounds" />
          </mxGeometry>
        </mxCell>
        <mxCell id="qoCMG7nuV2ip8myK71Ky-62" value="" style="shape=tableRow;horizontal=0;startSize=0;swimlaneHead=0;swimlaneBody=0;fillColor=none;collapsible=0;dropTarget=0;points=[[0,0.5],[1,0.5]];portConstraint=eastwest;top=0;left=0;right=0;bottom=0;fontSize=16;fontStyle=1" vertex="1" parent="qoCMG7nuV2ip8myK71Ky-49">
          <mxGeometry y="147" width="180" height="39" as="geometry" />
        </mxCell>
        <mxCell id="qoCMG7nuV2ip8myK71Ky-63" value="" style="shape=partialRectangle;connectable=0;fillColor=none;top=0;left=0;bottom=0;right=0;editable=1;overflow=hidden;whiteSpace=wrap;html=1;fontSize=16;fontStyle=1" vertex="1" parent="qoCMG7nuV2ip8myK71Ky-62">
          <mxGeometry width="35" height="39" as="geometry">
            <mxRectangle width="35" height="39" as="alternateBounds" />
          </mxGeometry>
        </mxCell>
        <mxCell id="qoCMG7nuV2ip8myK71Ky-64" value="order_date" style="shape=partialRectangle;connectable=0;fillColor=none;top=0;left=0;bottom=0;right=0;align=left;spacingLeft=6;overflow=hidden;whiteSpace=wrap;html=1;fontSize=16;fontStyle=1" vertex="1" parent="qoCMG7nuV2ip8myK71Ky-62">
          <mxGeometry x="35" width="145" height="39" as="geometry">
            <mxRectangle width="145" height="39" as="alternateBounds" />
          </mxGeometry>
        </mxCell>
        <mxCell id="qoCMG7nuV2ip8myK71Ky-65" value="" style="shape=tableRow;horizontal=0;startSize=0;swimlaneHead=0;swimlaneBody=0;fillColor=none;collapsible=0;dropTarget=0;points=[[0,0.5],[1,0.5]];portConstraint=eastwest;top=0;left=0;right=0;bottom=0;fontSize=16;fontStyle=1" vertex="1" parent="qoCMG7nuV2ip8myK71Ky-49">
          <mxGeometry y="186" width="180" height="39" as="geometry" />
        </mxCell>
        <mxCell id="qoCMG7nuV2ip8myK71Ky-66" value="" style="shape=partialRectangle;connectable=0;fillColor=none;top=0;left=0;bottom=0;right=0;editable=1;overflow=hidden;whiteSpace=wrap;html=1;fontSize=16;fontStyle=1" vertex="1" parent="qoCMG7nuV2ip8myK71Ky-65">
          <mxGeometry width="35" height="39" as="geometry">
            <mxRectangle width="35" height="39" as="alternateBounds" />
          </mxGeometry>
        </mxCell>
        <mxCell id="qoCMG7nuV2ip8myK71Ky-67" value="shipping_date" style="shape=partialRectangle;connectable=0;fillColor=none;top=0;left=0;bottom=0;right=0;align=left;spacingLeft=6;overflow=hidden;whiteSpace=wrap;html=1;fontSize=16;fontStyle=1" vertex="1" parent="qoCMG7nuV2ip8myK71Ky-65">
          <mxGeometry x="35" width="145" height="39" as="geometry">
            <mxRectangle width="145" height="39" as="alternateBounds" />
          </mxGeometry>
        </mxCell>
        <mxCell id="qoCMG7nuV2ip8myK71Ky-68" value="" style="shape=tableRow;horizontal=0;startSize=0;swimlaneHead=0;swimlaneBody=0;fillColor=none;collapsible=0;dropTarget=0;points=[[0,0.5],[1,0.5]];portConstraint=eastwest;top=0;left=0;right=0;bottom=0;fontSize=16;fontStyle=1" vertex="1" parent="qoCMG7nuV2ip8myK71Ky-49">
          <mxGeometry y="225" width="180" height="39" as="geometry" />
        </mxCell>
        <mxCell id="qoCMG7nuV2ip8myK71Ky-69" value="" style="shape=partialRectangle;connectable=0;fillColor=none;top=0;left=0;bottom=0;right=0;editable=1;overflow=hidden;whiteSpace=wrap;html=1;fontSize=16;fontStyle=1" vertex="1" parent="qoCMG7nuV2ip8myK71Ky-68">
          <mxGeometry width="35" height="39" as="geometry">
            <mxRectangle width="35" height="39" as="alternateBounds" />
          </mxGeometry>
        </mxCell>
        <mxCell id="qoCMG7nuV2ip8myK71Ky-70" value="due_date" style="shape=partialRectangle;connectable=0;fillColor=none;top=0;left=0;bottom=0;right=0;align=left;spacingLeft=6;overflow=hidden;whiteSpace=wrap;html=1;fontSize=16;fontStyle=1" vertex="1" parent="qoCMG7nuV2ip8myK71Ky-68">
          <mxGeometry x="35" width="145" height="39" as="geometry">
            <mxRectangle width="145" height="39" as="alternateBounds" />
          </mxGeometry>
        </mxCell>
        <mxCell id="qoCMG7nuV2ip8myK71Ky-71" value="" style="shape=tableRow;horizontal=0;startSize=0;swimlaneHead=0;swimlaneBody=0;fillColor=none;collapsible=0;dropTarget=0;points=[[0,0.5],[1,0.5]];portConstraint=eastwest;top=0;left=0;right=0;bottom=0;fontSize=16;fontStyle=1" vertex="1" parent="qoCMG7nuV2ip8myK71Ky-49">
          <mxGeometry y="264" width="180" height="39" as="geometry" />
        </mxCell>
        <mxCell id="qoCMG7nuV2ip8myK71Ky-72" value="" style="shape=partialRectangle;connectable=0;fillColor=none;top=0;left=0;bottom=0;right=0;editable=1;overflow=hidden;whiteSpace=wrap;html=1;fontSize=16;fontStyle=1" vertex="1" parent="qoCMG7nuV2ip8myK71Ky-71">
          <mxGeometry width="35" height="39" as="geometry">
            <mxRectangle width="35" height="39" as="alternateBounds" />
          </mxGeometry>
        </mxCell>
        <mxCell id="qoCMG7nuV2ip8myK71Ky-73" value="Sales" style="shape=partialRectangle;connectable=0;fillColor=none;top=0;left=0;bottom=0;right=0;align=left;spacingLeft=6;overflow=hidden;whiteSpace=wrap;html=1;fontSize=16;fontStyle=1" vertex="1" parent="qoCMG7nuV2ip8myK71Ky-71">
          <mxGeometry x="35" width="145" height="39" as="geometry">
            <mxRectangle width="145" height="39" as="alternateBounds" />
          </mxGeometry>
        </mxCell>
        <mxCell id="qoCMG7nuV2ip8myK71Ky-74" value="" style="shape=tableRow;horizontal=0;startSize=0;swimlaneHead=0;swimlaneBody=0;fillColor=none;collapsible=0;dropTarget=0;points=[[0,0.5],[1,0.5]];portConstraint=eastwest;top=0;left=0;right=0;bottom=0;fontSize=16;fontStyle=1" vertex="1" parent="qoCMG7nuV2ip8myK71Ky-49">
          <mxGeometry y="303" width="180" height="39" as="geometry" />
        </mxCell>
        <mxCell id="qoCMG7nuV2ip8myK71Ky-75" value="" style="shape=partialRectangle;connectable=0;fillColor=none;top=0;left=0;bottom=0;right=0;editable=1;overflow=hidden;whiteSpace=wrap;html=1;fontSize=16;fontStyle=1" vertex="1" parent="qoCMG7nuV2ip8myK71Ky-74">
          <mxGeometry width="35" height="39" as="geometry">
            <mxRectangle width="35" height="39" as="alternateBounds" />
          </mxGeometry>
        </mxCell>
        <mxCell id="qoCMG7nuV2ip8myK71Ky-76" value="Quantity" style="shape=partialRectangle;connectable=0;fillColor=none;top=0;left=0;bottom=0;right=0;align=left;spacingLeft=6;overflow=hidden;whiteSpace=wrap;html=1;fontSize=16;fontStyle=1" vertex="1" parent="qoCMG7nuV2ip8myK71Ky-74">
          <mxGeometry x="35" width="145" height="39" as="geometry">
            <mxRectangle width="145" height="39" as="alternateBounds" />
          </mxGeometry>
        </mxCell>
        <mxCell id="qoCMG7nuV2ip8myK71Ky-77" value="" style="shape=tableRow;horizontal=0;startSize=0;swimlaneHead=0;swimlaneBody=0;fillColor=none;collapsible=0;dropTarget=0;points=[[0,0.5],[1,0.5]];portConstraint=eastwest;top=0;left=0;right=0;bottom=0;fontSize=16;fontStyle=1" vertex="1" parent="qoCMG7nuV2ip8myK71Ky-49">
          <mxGeometry y="342" width="180" height="39" as="geometry" />
        </mxCell>
        <mxCell id="qoCMG7nuV2ip8myK71Ky-78" value="" style="shape=partialRectangle;connectable=0;fillColor=none;top=0;left=0;bottom=0;right=0;editable=1;overflow=hidden;whiteSpace=wrap;html=1;fontSize=16;fontStyle=1" vertex="1" parent="qoCMG7nuV2ip8myK71Ky-77">
          <mxGeometry width="35" height="39" as="geometry">
            <mxRectangle width="35" height="39" as="alternateBounds" />
          </mxGeometry>
        </mxCell>
        <mxCell id="qoCMG7nuV2ip8myK71Ky-79" value="Price" style="shape=partialRectangle;connectable=0;fillColor=none;top=0;left=0;bottom=0;right=0;align=left;spacingLeft=6;overflow=hidden;whiteSpace=wrap;html=1;fontSize=16;fontStyle=1" vertex="1" parent="qoCMG7nuV2ip8myK71Ky-77">
          <mxGeometry x="35" width="145" height="39" as="geometry">
            <mxRectangle width="145" height="39" as="alternateBounds" />
          </mxGeometry>
        </mxCell>
        <mxCell id="qoCMG7nuV2ip8myK71Ky-80" value="gold.dim_products" style="shape=table;startSize=30;container=1;collapsible=1;childLayout=tableLayout;fixedRows=1;rowLines=0;fontStyle=1;align=center;resizeLast=1;html=1;fontSize=16;fillColor=#fff2cc;strokeColor=#d6b656;" vertex="1" parent="1">
          <mxGeometry x="792" y="132" width="180" height="417" as="geometry" />
        </mxCell>
        <mxCell id="qoCMG7nuV2ip8myK71Ky-81" value="" style="shape=tableRow;horizontal=0;startSize=0;swimlaneHead=0;swimlaneBody=0;fillColor=none;collapsible=0;dropTarget=0;points=[[0,0.5],[1,0.5]];portConstraint=eastwest;top=0;left=0;right=0;bottom=1;fontSize=14;" vertex="1" parent="qoCMG7nuV2ip8myK71Ky-80">
          <mxGeometry y="30" width="180" height="36" as="geometry" />
        </mxCell>
        <mxCell id="qoCMG7nuV2ip8myK71Ky-82" value="" style="shape=partialRectangle;connectable=0;fillColor=none;top=0;left=0;bottom=0;right=0;fontStyle=1;overflow=hidden;whiteSpace=wrap;html=1;fontSize=14;" vertex="1" parent="qoCMG7nuV2ip8myK71Ky-81">
          <mxGeometry width="30" height="36" as="geometry">
            <mxRectangle width="30" height="36" as="alternateBounds" />
          </mxGeometry>
        </mxCell>
        <mxCell id="qoCMG7nuV2ip8myK71Ky-83" value="product_key" style="shape=partialRectangle;connectable=0;fillColor=none;top=0;left=0;bottom=0;right=0;align=left;spacingLeft=6;fontStyle=5;overflow=hidden;whiteSpace=wrap;html=1;fontSize=14;" vertex="1" parent="qoCMG7nuV2ip8myK71Ky-81">
          <mxGeometry x="30" width="150" height="36" as="geometry">
            <mxRectangle width="150" height="36" as="alternateBounds" />
          </mxGeometry>
        </mxCell>
        <mxCell id="qoCMG7nuV2ip8myK71Ky-84" value="" style="shape=tableRow;horizontal=0;startSize=0;swimlaneHead=0;swimlaneBody=0;fillColor=none;collapsible=0;dropTarget=0;points=[[0,0.5],[1,0.5]];portConstraint=eastwest;top=0;left=0;right=0;bottom=0;fontSize=16;fontStyle=1" vertex="1" parent="qoCMG7nuV2ip8myK71Ky-80">
          <mxGeometry y="66" width="180" height="39" as="geometry" />
        </mxCell>
        <mxCell id="qoCMG7nuV2ip8myK71Ky-85" value="" style="shape=partialRectangle;connectable=0;fillColor=none;top=0;left=0;bottom=0;right=0;editable=1;overflow=hidden;whiteSpace=wrap;html=1;fontSize=16;fontStyle=1" vertex="1" parent="qoCMG7nuV2ip8myK71Ky-84">
          <mxGeometry width="30" height="39" as="geometry">
            <mxRectangle width="30" height="39" as="alternateBounds" />
          </mxGeometry>
        </mxCell>
        <mxCell id="qoCMG7nuV2ip8myK71Ky-86" value="product_id" style="shape=partialRectangle;connectable=0;fillColor=none;top=0;left=0;bottom=0;right=0;align=left;spacingLeft=6;overflow=hidden;whiteSpace=wrap;html=1;fontSize=16;fontStyle=1" vertex="1" parent="qoCMG7nuV2ip8myK71Ky-84">
          <mxGeometry x="30" width="150" height="39" as="geometry">
            <mxRectangle width="150" height="39" as="alternateBounds" />
          </mxGeometry>
        </mxCell>
        <mxCell id="qoCMG7nuV2ip8myK71Ky-87" value="" style="shape=tableRow;horizontal=0;startSize=0;swimlaneHead=0;swimlaneBody=0;fillColor=none;collapsible=0;dropTarget=0;points=[[0,0.5],[1,0.5]];portConstraint=eastwest;top=0;left=0;right=0;bottom=0;fontSize=16;fontStyle=1" vertex="1" parent="qoCMG7nuV2ip8myK71Ky-80">
          <mxGeometry y="105" width="180" height="39" as="geometry" />
        </mxCell>
        <mxCell id="qoCMG7nuV2ip8myK71Ky-88" value="" style="shape=partialRectangle;connectable=0;fillColor=none;top=0;left=0;bottom=0;right=0;editable=1;overflow=hidden;whiteSpace=wrap;html=1;fontSize=16;fontStyle=1" vertex="1" parent="qoCMG7nuV2ip8myK71Ky-87">
          <mxGeometry width="30" height="39" as="geometry">
            <mxRectangle width="30" height="39" as="alternateBounds" />
          </mxGeometry>
        </mxCell>
        <mxCell id="qoCMG7nuV2ip8myK71Ky-89" value="product_number" style="shape=partialRectangle;connectable=0;fillColor=none;top=0;left=0;bottom=0;right=0;align=left;spacingLeft=6;overflow=hidden;whiteSpace=wrap;html=1;fontSize=16;fontStyle=1" vertex="1" parent="qoCMG7nuV2ip8myK71Ky-87">
          <mxGeometry x="30" width="150" height="39" as="geometry">
            <mxRectangle width="150" height="39" as="alternateBounds" />
          </mxGeometry>
        </mxCell>
        <mxCell id="qoCMG7nuV2ip8myK71Ky-90" value="" style="shape=tableRow;horizontal=0;startSize=0;swimlaneHead=0;swimlaneBody=0;fillColor=none;collapsible=0;dropTarget=0;points=[[0,0.5],[1,0.5]];portConstraint=eastwest;top=0;left=0;right=0;bottom=0;fontSize=16;fontStyle=1" vertex="1" parent="qoCMG7nuV2ip8myK71Ky-80">
          <mxGeometry y="144" width="180" height="39" as="geometry" />
        </mxCell>
        <mxCell id="qoCMG7nuV2ip8myK71Ky-91" value="" style="shape=partialRectangle;connectable=0;fillColor=none;top=0;left=0;bottom=0;right=0;editable=1;overflow=hidden;whiteSpace=wrap;html=1;fontSize=16;fontStyle=1" vertex="1" parent="qoCMG7nuV2ip8myK71Ky-90">
          <mxGeometry width="30" height="39" as="geometry">
            <mxRectangle width="30" height="39" as="alternateBounds" />
          </mxGeometry>
        </mxCell>
        <mxCell id="qoCMG7nuV2ip8myK71Ky-92" value="Category_id" style="shape=partialRectangle;connectable=0;fillColor=none;top=0;left=0;bottom=0;right=0;align=left;spacingLeft=6;overflow=hidden;whiteSpace=wrap;html=1;fontSize=16;fontStyle=1" vertex="1" parent="qoCMG7nuV2ip8myK71Ky-90">
          <mxGeometry x="30" width="150" height="39" as="geometry">
            <mxRectangle width="150" height="39" as="alternateBounds" />
          </mxGeometry>
        </mxCell>
        <mxCell id="qoCMG7nuV2ip8myK71Ky-93" value="" style="shape=tableRow;horizontal=0;startSize=0;swimlaneHead=0;swimlaneBody=0;fillColor=none;collapsible=0;dropTarget=0;points=[[0,0.5],[1,0.5]];portConstraint=eastwest;top=0;left=0;right=0;bottom=0;fontSize=16;fontStyle=1" vertex="1" parent="qoCMG7nuV2ip8myK71Ky-80">
          <mxGeometry y="183" width="180" height="39" as="geometry" />
        </mxCell>
        <mxCell id="qoCMG7nuV2ip8myK71Ky-94" value="" style="shape=partialRectangle;connectable=0;fillColor=none;top=0;left=0;bottom=0;right=0;editable=1;overflow=hidden;whiteSpace=wrap;html=1;fontSize=16;fontStyle=1" vertex="1" parent="qoCMG7nuV2ip8myK71Ky-93">
          <mxGeometry width="30" height="39" as="geometry">
            <mxRectangle width="30" height="39" as="alternateBounds" />
          </mxGeometry>
        </mxCell>
        <mxCell id="qoCMG7nuV2ip8myK71Ky-95" value="Category" style="shape=partialRectangle;connectable=0;fillColor=none;top=0;left=0;bottom=0;right=0;align=left;spacingLeft=6;overflow=hidden;whiteSpace=wrap;html=1;fontSize=16;fontStyle=1" vertex="1" parent="qoCMG7nuV2ip8myK71Ky-93">
          <mxGeometry x="30" width="150" height="39" as="geometry">
            <mxRectangle width="150" height="39" as="alternateBounds" />
          </mxGeometry>
        </mxCell>
        <mxCell id="qoCMG7nuV2ip8myK71Ky-96" value="" style="shape=tableRow;horizontal=0;startSize=0;swimlaneHead=0;swimlaneBody=0;fillColor=none;collapsible=0;dropTarget=0;points=[[0,0.5],[1,0.5]];portConstraint=eastwest;top=0;left=0;right=0;bottom=0;fontSize=16;fontStyle=1" vertex="1" parent="qoCMG7nuV2ip8myK71Ky-80">
          <mxGeometry y="222" width="180" height="39" as="geometry" />
        </mxCell>
        <mxCell id="qoCMG7nuV2ip8myK71Ky-97" value="" style="shape=partialRectangle;connectable=0;fillColor=none;top=0;left=0;bottom=0;right=0;editable=1;overflow=hidden;whiteSpace=wrap;html=1;fontSize=16;fontStyle=1" vertex="1" parent="qoCMG7nuV2ip8myK71Ky-96">
          <mxGeometry width="30" height="39" as="geometry">
            <mxRectangle width="30" height="39" as="alternateBounds" />
          </mxGeometry>
        </mxCell>
        <mxCell id="qoCMG7nuV2ip8myK71Ky-98" value="Subcategory" style="shape=partialRectangle;connectable=0;fillColor=none;top=0;left=0;bottom=0;right=0;align=left;spacingLeft=6;overflow=hidden;whiteSpace=wrap;html=1;fontSize=16;fontStyle=1" vertex="1" parent="qoCMG7nuV2ip8myK71Ky-96">
          <mxGeometry x="30" width="150" height="39" as="geometry">
            <mxRectangle width="150" height="39" as="alternateBounds" />
          </mxGeometry>
        </mxCell>
        <mxCell id="qoCMG7nuV2ip8myK71Ky-99" value="" style="shape=tableRow;horizontal=0;startSize=0;swimlaneHead=0;swimlaneBody=0;fillColor=none;collapsible=0;dropTarget=0;points=[[0,0.5],[1,0.5]];portConstraint=eastwest;top=0;left=0;right=0;bottom=0;fontSize=16;fontStyle=1" vertex="1" parent="qoCMG7nuV2ip8myK71Ky-80">
          <mxGeometry y="261" width="180" height="39" as="geometry" />
        </mxCell>
        <mxCell id="qoCMG7nuV2ip8myK71Ky-100" value="" style="shape=partialRectangle;connectable=0;fillColor=none;top=0;left=0;bottom=0;right=0;editable=1;overflow=hidden;whiteSpace=wrap;html=1;fontSize=16;fontStyle=1" vertex="1" parent="qoCMG7nuV2ip8myK71Ky-99">
          <mxGeometry width="30" height="39" as="geometry">
            <mxRectangle width="30" height="39" as="alternateBounds" />
          </mxGeometry>
        </mxCell>
        <mxCell id="qoCMG7nuV2ip8myK71Ky-101" value="Maintenance" style="shape=partialRectangle;connectable=0;fillColor=none;top=0;left=0;bottom=0;right=0;align=left;spacingLeft=6;overflow=hidden;whiteSpace=wrap;html=1;fontSize=16;fontStyle=1" vertex="1" parent="qoCMG7nuV2ip8myK71Ky-99">
          <mxGeometry x="30" width="150" height="39" as="geometry">
            <mxRectangle width="150" height="39" as="alternateBounds" />
          </mxGeometry>
        </mxCell>
        <mxCell id="qoCMG7nuV2ip8myK71Ky-102" value="" style="shape=tableRow;horizontal=0;startSize=0;swimlaneHead=0;swimlaneBody=0;fillColor=none;collapsible=0;dropTarget=0;points=[[0,0.5],[1,0.5]];portConstraint=eastwest;top=0;left=0;right=0;bottom=0;fontSize=16;fontStyle=1" vertex="1" parent="qoCMG7nuV2ip8myK71Ky-80">
          <mxGeometry y="300" width="180" height="39" as="geometry" />
        </mxCell>
        <mxCell id="qoCMG7nuV2ip8myK71Ky-103" value="" style="shape=partialRectangle;connectable=0;fillColor=none;top=0;left=0;bottom=0;right=0;editable=1;overflow=hidden;whiteSpace=wrap;html=1;fontSize=16;fontStyle=1" vertex="1" parent="qoCMG7nuV2ip8myK71Ky-102">
          <mxGeometry width="30" height="39" as="geometry">
            <mxRectangle width="30" height="39" as="alternateBounds" />
          </mxGeometry>
        </mxCell>
        <mxCell id="qoCMG7nuV2ip8myK71Ky-104" value="product_cost" style="shape=partialRectangle;connectable=0;fillColor=none;top=0;left=0;bottom=0;right=0;align=left;spacingLeft=6;overflow=hidden;whiteSpace=wrap;html=1;fontSize=16;fontStyle=1" vertex="1" parent="qoCMG7nuV2ip8myK71Ky-102">
          <mxGeometry x="30" width="150" height="39" as="geometry">
            <mxRectangle width="150" height="39" as="alternateBounds" />
          </mxGeometry>
        </mxCell>
        <mxCell id="qoCMG7nuV2ip8myK71Ky-105" value="" style="shape=tableRow;horizontal=0;startSize=0;swimlaneHead=0;swimlaneBody=0;fillColor=none;collapsible=0;dropTarget=0;points=[[0,0.5],[1,0.5]];portConstraint=eastwest;top=0;left=0;right=0;bottom=0;fontSize=16;fontStyle=1" vertex="1" parent="qoCMG7nuV2ip8myK71Ky-80">
          <mxGeometry y="339" width="180" height="39" as="geometry" />
        </mxCell>
        <mxCell id="qoCMG7nuV2ip8myK71Ky-106" value="" style="shape=partialRectangle;connectable=0;fillColor=none;top=0;left=0;bottom=0;right=0;editable=1;overflow=hidden;whiteSpace=wrap;html=1;fontSize=16;fontStyle=1" vertex="1" parent="qoCMG7nuV2ip8myK71Ky-105">
          <mxGeometry width="30" height="39" as="geometry">
            <mxRectangle width="30" height="39" as="alternateBounds" />
          </mxGeometry>
        </mxCell>
        <mxCell id="qoCMG7nuV2ip8myK71Ky-107" value="product_line" style="shape=partialRectangle;connectable=0;fillColor=none;top=0;left=0;bottom=0;right=0;align=left;spacingLeft=6;overflow=hidden;whiteSpace=wrap;html=1;fontSize=16;fontStyle=1" vertex="1" parent="qoCMG7nuV2ip8myK71Ky-105">
          <mxGeometry x="30" width="150" height="39" as="geometry">
            <mxRectangle width="150" height="39" as="alternateBounds" />
          </mxGeometry>
        </mxCell>
        <mxCell id="qoCMG7nuV2ip8myK71Ky-108" value="" style="shape=tableRow;horizontal=0;startSize=0;swimlaneHead=0;swimlaneBody=0;fillColor=none;collapsible=0;dropTarget=0;points=[[0,0.5],[1,0.5]];portConstraint=eastwest;top=0;left=0;right=0;bottom=0;fontSize=16;fontStyle=1" vertex="1" parent="qoCMG7nuV2ip8myK71Ky-80">
          <mxGeometry y="378" width="180" height="39" as="geometry" />
        </mxCell>
        <mxCell id="qoCMG7nuV2ip8myK71Ky-109" value="" style="shape=partialRectangle;connectable=0;fillColor=none;top=0;left=0;bottom=0;right=0;editable=1;overflow=hidden;whiteSpace=wrap;html=1;fontSize=16;fontStyle=1" vertex="1" parent="qoCMG7nuV2ip8myK71Ky-108">
          <mxGeometry width="30" height="39" as="geometry">
            <mxRectangle width="30" height="39" as="alternateBounds" />
          </mxGeometry>
        </mxCell>
        <mxCell id="qoCMG7nuV2ip8myK71Ky-110" value="product_start_dt" style="shape=partialRectangle;connectable=0;fillColor=none;top=0;left=0;bottom=0;right=0;align=left;spacingLeft=6;overflow=hidden;whiteSpace=wrap;html=1;fontSize=16;fontStyle=1" vertex="1" parent="qoCMG7nuV2ip8myK71Ky-108">
          <mxGeometry x="30" width="150" height="39" as="geometry">
            <mxRectangle width="150" height="39" as="alternateBounds" />
          </mxGeometry>
        </mxCell>
        <mxCell id="qoCMG7nuV2ip8myK71Ky-111" value="" style="edgeStyle=entityRelationEdgeStyle;fontSize=12;html=1;endArrow=ERzeroToMany;startArrow=ERmandOne;rounded=0;entryX=0;entryY=0.5;entryDx=0;entryDy=0;" edge="1" parent="1" target="qoCMG7nuV2ip8myK71Ky-59">
          <mxGeometry width="100" height="100" relative="1" as="geometry">
            <mxPoint x="334" y="254" as="sourcePoint" />
            <mxPoint x="434" y="154" as="targetPoint" />
          </mxGeometry>
        </mxCell>
        <mxCell id="qoCMG7nuV2ip8myK71Ky-112" value="" style="edgeStyle=entityRelationEdgeStyle;fontSize=12;html=1;endArrow=ERzeroToMany;startArrow=ERmandOne;rounded=0;entryX=1;entryY=0.5;entryDx=0;entryDy=0;" edge="1" parent="1" source="qoCMG7nuV2ip8myK71Ky-81" target="qoCMG7nuV2ip8myK71Ky-56">
          <mxGeometry width="100" height="100" relative="1" as="geometry">
            <mxPoint x="682" y="121" as="sourcePoint" />
            <mxPoint x="676" y="171" as="targetPoint" />
          </mxGeometry>
        </mxCell>
        <mxCell id="qoCMG7nuV2ip8myK71Ky-114" value="&lt;b&gt;&lt;font style=&quot;font-size: 15px;&quot;&gt;Sales Calculation&lt;/font&gt;&lt;/b&gt;" style="swimlane;childLayout=stackLayout;horizontal=1;startSize=50;horizontalStack=0;rounded=1;fontSize=14;fontStyle=0;strokeWidth=2;resizeParent=0;resizeLast=1;shadow=0;dashed=0;align=center;arcSize=4;whiteSpace=wrap;html=1;" vertex="1" parent="1">
          <mxGeometry x="550" y="638" width="160" height="120" as="geometry" />
        </mxCell>
        <mxCell id="qoCMG7nuV2ip8myK71Ky-115" value="&lt;font style=&quot;font-size: 14px;&quot;&gt;Sales = Quantiy * price&lt;/font&gt;" style="align=left;strokeColor=none;fillColor=none;spacingLeft=4;spacingRight=4;fontSize=12;verticalAlign=top;resizable=0;rotatable=0;part=1;html=1;whiteSpace=wrap;" vertex="1" parent="qoCMG7nuV2ip8myK71Ky-114">
          <mxGeometry y="50" width="160" height="70" as="geometry" />
        </mxCell>
        <mxCell id="qoCMG7nuV2ip8myK71Ky-116" value="" style="endArrow=none;dashed=1;html=1;dashPattern=1 3;strokeWidth=2;rounded=0;" edge="1" parent="1">
          <mxGeometry width="50" height="50" relative="1" as="geometry">
            <mxPoint x="629.15" y="638" as="sourcePoint" />
            <mxPoint x="561" y="501" as="targetPoint" />
          </mxGeometry>
        </mxCell>
      </root>
    </mxGraphModel>
  </diagram>
</mxfile>
